PathFileType	4	(X/Y/Z)	pose_F01_0-94.trc
DataRate	CameraRate	NumFrames	NumMarkers	Units	OrigDataRate	OrigDataStartFrame	OrigNumFrames
30	30	7	21	m	30	70	94
Frame#	Time	CHip			RHip			RKnee			RAnkle			RBigToe			RSmallToe			RHeel			LHip			LKnee			LAnkle			LBigToe			LSmallToe			LHeel			Neck			Nose			RShoulder			RElbow			RWrist			LShoulder			LElbow			LWrist			
		X1	Y1	Z1	X2	Y2	Z2	X3	Y3	Z3	X4	Y4	Z4	X5	Y5	Z5	X6	Y6	Z6	X7	Y7	Z7	X8	Y8	Z8	X9	Y9	Z9	X10	Y10	Z10	X11	Y11	Z11	X12	Y12	Z12	X13	Y13	Z13	X14	Y14	Z14	X15	Y15	Z15	X16	Y16	Z16	X17	Y17	Z17	X18	Y18	Z18	X19	Y19	Z19	X20	Y20	Z20	X21	Y21	Z21	
70	2.3333333333333335	-0.2443753850803873	1.8163747129769847	-0.36147162137066097	-0.25591132699169505	1.8162377499141558	-0.30139887729096465	-0.26775805735908415	1.673572866283911	-0.2805677223155505	-0.2988914530353975	1.549095583466306	-0.24737788519938103	-0.2686203010947071	1.5103932135757978	-0.22203369979162324	-0.28194147585332613	1.5178481591300959	-0.19752521692272665	-0.3056816127469878	1.5358354589428034	-0.24754956593177438	-0.2327092874974439	1.8180652245080469	-0.425195382317403	-0.24885324927034613	1.6757985390772796	-0.37337930366611843	-0.25517307990587357	1.5277378527003613	-0.33266379456467915	-0.20271346737993665	1.4989546668303104	-0.32153556579170606	-0.20694031416873254	1.4974892971456257	-0.34612801271284827	-0.26338468871637016	1.514757237869683	-0.3271110031992472	-0.2508820932233523	1.9840995669519477	-0.40149595960394124	-0.21469288452496116	2.0577382016583474	-0.42169116652600713	-0.26352612573101036	1.98142245200328	-0.31453899594639106	-0.25402118746621605	1.893461546116802	-0.2743883928196337	-0.23987579325619654	1.8293968064547999	-0.24243258084991168	-0.2331349299775679	1.9866772077534636	-0.48750328708088164	-0.22611534748813128	1.9055490654511587	-0.4888502094908428	-0.18738917716948314	1.9148685942067827	-0.43877792481851574
71	2.3666666666666667	-0.24514925890938022	1.8158387125775497	-0.3649646590634396	-0.25673124916097384	1.815827167902531	-0.30488882724490307	-0.27339636626436836	1.6730007720034368	-0.28361380704140116	-0.3041058026305487	1.5535555361016722	-0.25765372756997257	-0.2730548583493277	1.5169279469648698	-0.21302474838293936	-0.2874431464020754	1.5239598106572592	-0.19733440743567657	-0.3167585134989226	1.5556689800493706	-0.25581238980256477	-0.23347404191867505	1.8177891371957164	-0.4285809682957112	-0.2485546557118046	1.6730492787982714	-0.37359015037507887	-0.2545485877836417	1.5268812760804285	-0.3335110901741784	-0.1984342509290358	1.4984684282921505	-0.31673451245263984	-0.20542531560646443	1.4964526571239423	-0.34244003833873493	-0.26393827227706435	1.5138675063174027	-0.33151791364871575	-0.25103034277100106	1.9854834898022553	-0.4020527352985517	-0.2156919924173482	2.0592273481262047	-0.4254050851320485	-0.2675690042126928	1.9814541126094534	-0.31884621639960986	-0.2663091669469549	1.891333517854769	-0.26838417027582256	-0.2571311043066663	1.8152616749123098	-0.22847637599159215	-0.23124343013247461	1.9882436815302373	-0.49010863022567874	-0.2126974182311668	1.913918919645141	-0.5172474735809338	-0.1813621946128915	1.884479934843563	-0.43784461381560563
72	2.4	-0.2508602889262194	1.8149276368394063	-0.36724639999074765	-0.26067095660168715	1.8123573971688705	-0.30896260194872077	-0.2788286793502553	1.68088280476718	-0.28815829250882236	-0.32373954173936015	1.574225165997097	-0.27218740152185733	-0.29018953118927304	1.5405694765435909	-0.23155863781316194	-0.30592421087154076	1.5428357843834437	-0.21832323074628934	-0.3344133173052962	1.5754889991733616	-0.2897867010213385	-0.23418809728139853	1.8157777620976119	-0.4316878551105292	-0.24988950304890095	1.6775899693601815	-0.37735719352683694	-0.2546987565448478	1.5275928965935688	-0.3335698730851191	-0.19841427661429883	1.4979673015926955	-0.3171257781340668	-0.2052124318883007	1.495195051140536	-0.34279587371260856	-0.2664436160235327	1.5179638253505054	-0.3341862118911682	-0.25218713657894753	1.9830918497051166	-0.4045166781979554	-0.2185806512456174	2.0593175317166317	-0.42646464860394184	-0.26937504900339154	1.978435285764115	-0.3158618571212576	-0.27826381771541314	1.8886176634419267	-0.27278734541875616	-0.2741034216409818	1.8124979007614952	-0.2322470341722355	-0.23334787391055145	1.9860886060376624	-0.48797227719663255	-0.21422969116310642	1.9116268366714408	-0.5204601481943307	-0.19239200477124715	1.8526056312296626	-0.4472616620806717
73	2.433333333333333	-0.254313803169608	1.813245705344253	-0.3679240935679463	-0.2705860181227751	1.811198112989706	-0.30688518794903125	-0.2848732389500401	1.6912041827600208	-0.2972225360766736	-0.33333922824607076	1.5786225835857202	-0.30092291150452305	-0.30303472802059017	1.542897241754737	-0.2833955148324314	-0.31629641460255187	1.5455776900006324	-0.2684532787840075	-0.34630014275781557	1.5724820654373584	-0.31920564778471816	-0.23855402573013273	1.8149125284295191	-0.4271364979288535	-0.2553418737043887	1.6828769631355156	-0.37634205261469605	-0.2534059355068315	1.531294786967951	-0.3352690340227572	-0.19951079187148563	1.4984194952896452	-0.32012033690095715	-0.20477869767514134	1.4967487765365919	-0.34797508396302745	-0.26642847704003364	1.5207884078553764	-0.33458141234113736	-0.2553213938557733	1.9834125624222467	-0.4063460468588178	-0.2245601201819944	2.058428462415024	-0.4285673733179911	-0.2758115338665303	1.9818046183576998	-0.32775070003935297	-0.28372701047134197	1.8882044792269803	-0.2808187385184245	-0.282268201117537	1.8113328661920878	-0.24173680034139858	-0.23643385139400788	1.984975216494496	-0.48897296104003285	-0.22653945963334768	1.9044552535836274	-0.5058802213312572	-0.1937557557225736	1.8453220493107956	-0.45148082125451755
74	2.466666666666667	-0.2623907204434942	1.8118702638458601	-0.36798531104574944	-0.27801372902285587	1.8103778978802216	-0.31240002517376636	-0.303337005155391	1.6836711935203246	-0.303826450824946	-0.34612888411544435	1.5842221352868955	-0.33490074289540434	-0.31587992485190736	1.5452250069658835	-0.3352323918517009	-0.32666861833356303	1.5483195956178208	-0.3185833268217256	-0.3578696141941272	1.574942548876263	-0.3493486189990845	-0.25065839850174676	1.813612002852732	-0.4224612427445976	-0.26124554298256164	1.677048531375723	-0.37848569455967884	-0.25331588508841074	1.5307134209540285	-0.33526807576768664	-0.19854485034446284	1.4987422933678214	-0.31720464704304085	-0.20594217536142082	1.4984146503319378	-0.34267482714561154	-0.2651494905439976	1.5179000212953568	-0.3305763781815194	-0.2604730202652471	1.9811658503663692	-0.413203279460827	-0.23230653399141407	2.058424761570143	-0.42846551388655246	-0.28259410937046275	1.980670592504386	-0.3246477507742942	-0.29010334707914287	1.8873076451361332	-0.27748024698186036	-0.29169764440946633	1.8108774720723235	-0.254345787685881	-0.24055744020218844	1.9824385528031943	-0.49267896849460135	-0.2305280792153984	1.8960686105189144	-0.4997861682745275	-0.19806711573544833	1.827786036598438	-0.4381122461559331
75	2.5	-0.2709629902933283	1.812012472042193	-0.3718597627962185	-0.2828768817647258	1.8109153905546125	-0.3209211234714492	-0.3131304224023879	1.6883124017774795	-0.32688177843574534	-0.35417777340619283	1.5761237905761305	-0.36290402818394113	-0.31619695785780444	1.540769567168307	-0.35342624822949403	-0.3295210074902209	1.546763599660578	-0.33441726536496924	-0.3644858336236234	1.568174214493742	-0.37456325313079203	-0.25435013257443767	1.8145897360244396	-0.42729550436827707	-0.2675700491218258	1.6751120219323912	-0.375941368759265	-0.2529177612109759	1.5282506618689682	-0.33551299329870227	-0.19670390790653755	1.4991935366007043	-0.31889166401634744	-0.20387623337294564	1.498152838902552	-0.344310522542903	-0.26575057205951463	1.514772035584526	-0.33410467268256294	-0.2715018579631265	1.977712605077674	-0.41375514521290824	-0.23382175100633448	2.0542716308873765	-0.4319867022214617	-0.2897356691322358	1.9781737499392857	-0.32966199549953373	-0.29844271295447306	1.8859603385871793	-0.2862986480258567	-0.29074182110908803	1.810146548491671	-0.25982450979680094	-0.24471526741688202	1.9799619394596466	-0.4964051674313383	-0.24459853832330314	1.8905692405631407	-0.49213370918609384	-0.21939534741471475	1.8170128175512694	-0.45665033832728735
76	2.533333333333333	-0.27948597955054816	1.811155693591321	-0.3805513497801763	-0.29022835759464577	1.809102517281008	-0.3265517891060815	-0.3228365151932738	1.6848517180472504	-0.3440276565354133	-0.3568895862101955	1.5683918382642887	-0.3779951137160981	-0.3221817626487442	1.5401840279495302	-0.3707578040631269	-0.33555496654032346	1.5458995013552883	-0.3516204958399969	-0.365540436285136	1.5603022244597913	-0.38689317594955513	-0.26471253028908825	1.8126387531674424	-0.43374188578204037	-0.26887794715835217	1.6782365082736266	-0.3795798819611264	-0.25596134291804895	1.5284545849124433	-0.33673316862631686	-0.19985124291878167	1.499872042013047	-0.3203025124769409	-0.20530317621902577	1.4992041785131298	-0.3478959012389317	-0.26587458064834424	1.5153580310429648	-0.33417746898530204	-0.278493005364831	1.9746942167642558	-0.4102840691038457	-0.237989463063135	2.049380140346253	-0.43521767038210785	-0.2960216848364619	1.973572709928824	-0.331435421895754	-0.30460236687291864	1.8847713592289395	-0.28865885871109764	-0.28825089811185106	1.8088933035238999	-0.26725073166797747	-0.26072205699955014	1.9759537441722277	-0.49505463610511036	-0.2498761572386674	1.885340606296484	-0.49871822678817124	-0.23096253042768566	1.8060740118018594	-0.47387333797088543
